<!--?xml version="1.0" encoding="UTF-8"?-->
<svg xmlns="http://www.w3.org/2000/svg" xmlns:xlink="http://www.w3.org/1999/xlink" viewBox="0 0 250 250" width="600" height="600" style="">
  <defs>
    <style>
      .cls-1 {
        filter: url(#drop-shadow-1);
      }

      .cls-2 {
        fill: none;
        stroke:white;
        stroke-width:10;
        stroke-miterlimit:10;
      }
    </style>
    <filter id="drop-shadow-1" filterUnits="userSpaceOnUse">
      <feOffset dx="7" dy="7"></feOffset>
      <feGaussianBlur result="blur" stdDeviation="5"></feGaussianBlur>
      <feFlood flood-color="#000" flood-opacity=".75"></feFlood>
      <feComposite in2="blur" operator="in"></feComposite>
      <feComposite in="SourceGraphic"></feComposite>
    </filter>
  </defs>
  <g class="cls-1">
    <path class="cls-2 iXLZLJba_0" d="m0,71.33l6.1-6.24c2.86,4.67,6.86,7.01,11.99,7.01,7.59,0,12.59-6.1,15-18.31l7.61-38.17c-1.46-.22-2.49-.33-3.09-.33-4.55,0-8.44,1.66-11.67,4.98-3.22,3.32-4.83,7.32-4.83,12.01v.6l-8.34,4.09c.63-8.18,3.86-14.44,9.69-18.78,5.83-4.33,13.9-6.5,24.21-6.5h3.82l-6.1,30.74,22.47-21.33c7.79-7.37,14.14-11.05,19.04-11.05,1.95,0,3.84.54,5.67,1.63l-5.93,6.27c-1.23-1.03-2.42-1.55-3.57-1.55-3.32,0-7.99,2.39-13.99,7.18-6,4.79-11.19,10.26-15.58,16.43,1.06,1.81,3.82,6.59,8.29,14.36,6.36,11.09,11.84,16.64,16.46,16.64,1.55,0,4.21-1.2,7.99-3.61l-.64,3.27c-4.93,4.12-9.1,6.19-12.5,6.19-3.84,0-7.72-2.38-11.64-7.14-3.92-4.76-9.32-13.64-16.2-26.66l-1.12,5.5c-1.6,8.08-5.19,14.69-10.76,19.82-5.57,5.13-11.92,7.7-19.06,7.7-5.24,0-9.68-1.59-13.32-4.77Z"></path>
    <path class="cls-2 iXLZLJba_1" d="m125.96,51.95h-.78c-3.23,7.19-7.13,13.06-11.68,17.6-4.55,4.54-8.82,6.81-12.79,6.81-6.04,0-9.06-3.78-9.06-11.34,0-8.34,3.32-16.5,9.97-24.49,6.88-8.28,15.27-12.42,25.18-12.42,4.1,0,8.38.17,12.85.52l-3.09,12.72-4.17,21.23c-.66,3.32-.99,5.47-.99,6.45,0,1.8.84,2.71,2.54,2.71,2.86,0,7.13-3.15,12.8-9.45l-.77,4c-6.29,6.73-11.92,10.1-16.92,10.1-4.16,0-6.24-2.16-6.24-6.49,0-1.43.35-3.87,1.04-7.3l2.12-10.61Zm3.45-17.19c-3.61-1.6-7.17-2.41-10.69-2.41-5.21,0-9.38,3.29-12.5,9.88-3.67,7.79-5.5,14.8-5.5,21.01,0,4.5,1.32,6.75,3.95,6.75,2.46,0,6-2.58,10.63-7.76,4.62-5.17,8.68-11.08,12.17-17.72l1.94-9.75Z"></path>
    <path class="cls-2 iXLZLJba_2" d="m150.52,75.28l3.05-12.72,5.93-29.69c2.06-10.37,5.95-18.44,11.67-24.21,5.71-5.77,12.67-8.66,20.86-8.66,2.84,0,5.41.3,7.73.9l-5.93,6.14c-3.32-1.52-6.19-2.28-8.59-2.28-4.55,0-7.97,1.65-10.25,4.96s-4.33,9.6-6.17,18.88l-4.64,23.33h.73c3.29-7.22,7.21-13.08,11.75-17.6,4.54-4.51,8.8-6.77,12.78-6.77,6.07,0,9.11,3.78,9.11,11.34,0,8.36-3.31,16.54-9.93,24.54-6.82,8.22-15.14,12.33-24.96,12.33-1.46,0-3.31-.04-5.54-.13l-7.61-.39Zm10.23-6.06c3.55,1.58,7.13,2.36,10.74,2.36,5.18,0,9.34-3.29,12.46-9.88,3.7-7.79,5.54-14.8,5.54-21.01,0-4.5-1.33-6.75-4-6.75-2.44,0-5.97,2.59-10.59,7.76-4.63,5.17-8.7,11.09-12.22,17.77l-1.93,9.75Z"></path>
    <path class="cls-2 iXLZLJba_3" d="m242.06,51.95h-.73c-8.13,16.27-16.05,24.41-23.78,24.41-4.58,0-6.87-2.71-6.87-8.12,0-1.55.23-3.48.69-5.8l4.17-21.1c.66-3.29.99-5.44.99-6.45,0-1.78-.85-2.66-2.54-2.66-2.81,0-7.08,3.14-12.8,9.41l.77-3.95c6.26-6.73,11.9-10.1,16.92-10.1,4.16,0,6.24,2.15,6.24,6.45,0,1.43-.35,3.87-1.04,7.3l-4.24,21.14c-.38,1.89-.56,3.24-.56,4.04,0,2.32.84,3.48,2.53,3.48,2.15,0,5.4-2.6,9.77-7.8,4.37-5.2,8.38-11.25,12.04-18.15l3.11-15.43,9.11-.52-3.18,13.23-4.21,21.23c-.66,3.29-.99,5.44-.99,6.45,0,1.8.84,2.71,2.54,2.71,2.84,0,7.1-3.15,12.8-9.45l-.77,4c-6.29,6.73-11.92,10.1-16.92,10.1-4.16,0-6.24-2.16-6.24-6.49,0-1.46.35-3.9,1.04-7.3l2.16-10.61Z"></path>
    <path class="cls-2 iXLZLJba_4" d="m277.54,31.8h-9.84l2.96-3.18h7.48l2.45-12.16,8.89-2.15-2.84,14.31h16.2l-3.52,3.78c-3.7-.4-6.98-.6-9.84-.6h-3.48l-5.84,29.43c-.6,3.04-.9,5.17-.9,6.4,0,2.26,1,3.39,3.01,3.39,3.09,0,7.32-2.29,12.68-6.88l-.77,3.95c-5.56,5.5-10.9,8.25-16.03,8.25s-7.3-2.69-7.3-8.08c0-1.92.31-4.47.95-7.65l5.76-28.83Z"></path>
    <path class="cls-2 iXLZLJba_5" d="m319.86,76.36c-3.75,0-6.88-1.47-9.39-4.4-2.51-2.94-3.76-6.6-3.76-10.98,0-8.25,3.12-15.88,9.37-22.88,6.24-7,13.05-10.51,20.41-10.51,3.98,0,7.26,1.43,9.84,4.3,2.58,2.86,3.87,6.52,3.87,10.96,0,8.57-3.12,16.29-9.37,23.18-6.25,6.89-13.23,10.33-20.97,10.33Zm4.9-3.74c4.24,0,7.97-2.73,11.19-8.19s4.83-11.79,4.83-19.01c0-9.48-2.89-14.22-8.68-14.22-4.1,0-7.78,2.81-11.06,8.44-3.28,5.63-4.92,11.97-4.92,19.01,0,9.31,2.88,13.96,8.64,13.96Z"></path>
    <path class="cls-2 iXLZLJba_6" d="m367.6,5.17l6.79-5.17,5.2,6.79c-.86,11.03-6.06,16.54-15.6,16.54l1.81-2.62c4.18-.83,6.55-3.85,7.09-9.07l-5.29-6.47Z"></path>
    <path class="cls-2 iXLZLJba_7" d="m374.56,73.82l5.67-5.8c3.72,2.72,7.5,4.08,11.36,4.08,2.37,0,4.37-.62,6-1.87,1.63-1.25,2.44-2.79,2.44-4.62,0-2.03-1.62-4.81-4.86-8.34l-3.91-4.3c-3.81-4.18-5.71-7.68-5.71-10.48,0-3.9,1.85-7.35,5.54-10.38,3.7-3.02,7.92-4.53,12.68-4.53,2.61,0,5.53.54,8.77,1.63l-1.89,9.5h-2.75l.13-.73c.06-.26.09-.56.09-.9,0-3.87-2.49-5.8-7.46-5.8-5.57,0-8.36,2.23-8.36,6.7,0,2.26,1.66,5.27,4.98,9.02l3.52,3.91c3.84,4.33,5.76,7.88,5.76,10.66,0,3.84-2.03,7.26-6.1,10.27-4.07,3.01-8.69,4.51-13.88,4.51-3.64,0-7.65-.85-12.03-2.54Z"></path>
    <path class="cls-2 iXLZLJba_8" d="m449.54,75.28l6.32-6.36h.9c4.3,0,7.26-.98,8.89-2.94,1.63-1.96,3.14-6.35,4.51-13.17l7.52-37.77c-5.9,0-10.67,1.58-14.31,4.75-3.64,3.17-5.46,7.3-5.46,12.4v.95l-8.34,4.04c.72-8.77,4.12-15.2,10.23-19.31,6.1-4.11,15.28-6.17,27.54-6.17,8.65,0,14.83.93,18.54,2.79,3.71,1.86,5.56,4.96,5.56,9.28,0,8.74-6.59,14.84-19.77,18.3,11.06,3.55,16.59,8.42,16.59,14.61,0,5.53-3.02,10.19-9.07,13.99-6.04,3.8-13.48,5.69-22.3,5.69l-10.18-.34-17.19-.73Zm15.98-5.59l4.47.99c4.38.95,8.99,1.42,13.84,1.42,9.85,0,14.78-4.6,14.78-13.79,0-4.5-1.47-8.04-4.4-10.63-2.94-2.59-6.94-3.89-12.01-3.89h-1.25l-.95,4.81c-1.89,9.4-6.72,16.43-14.48,21.1Zm15.98-28.62h2.23c5.3,0,9.68-1.57,13.15-4.71,3.47-3.14,5.2-7.11,5.2-11.92,0-6.76-4.73-10.14-14.18-10.14h-1.07l-5.33,26.77Z"></path>
    <path class="cls-2 iXLZLJba_9" d="m544.22,62.05l-.77,3.95c-6.77,6.9-12.58,10.36-17.46,10.36-4.07,0-6.11-2.19-6.11-6.57,0-1.8.3-4.22.9-7.26l5.89-29.65c2.06-10.37,5.96-18.44,11.68-24.21,5.72-5.77,12.68-8.66,20.88-8.66,2.87,0,5.45.3,7.74.9l-5.89,6.14c-3.33-1.52-6.19-2.28-8.6-2.28-4.56,0-7.99,1.66-10.28,4.98-2.29,3.32-4.36,9.61-6.19,18.86l-6.75,33.95c-.66,3.29-.99,5.44-.99,6.45,0,1.8.85,2.71,2.54,2.71,1.92,0,5.63-2.55,11.14-7.65.43-.4,1.19-1.07,2.28-2.02Z"></path>
    <path class="cls-2 iXLZLJba_10" d="m561.3,76.36c-3.75,0-6.88-1.47-9.39-4.4-2.51-2.94-3.76-6.6-3.76-10.98,0-8.25,3.12-15.88,9.37-22.88,6.24-7,13.05-10.51,20.41-10.51,3.98,0,7.26,1.43,9.84,4.3,2.58,2.86,3.87,6.52,3.87,10.96,0,8.57-3.12,16.29-9.37,23.18-6.25,6.89-13.23,10.33-20.97,10.33Zm4.9-3.74c4.24,0,7.97-2.73,11.19-8.19s4.83-11.79,4.83-19.01c0-9.48-2.89-14.22-8.68-14.22-4.1,0-7.79,2.81-11.06,8.44-3.28,5.63-4.92,11.97-4.92,19.01,0,9.31,2.88,13.96,8.64,13.96Z"></path>
    <path class="cls-2 iXLZLJba_11" d="m604.14,74.59c-3.44-1.72-5.16-5.17-5.16-10.36,0-8.48,3.44-16.67,10.31-24.58,6.67-7.71,14.97-11.56,24.88-11.56,1.89,0,5.89.17,11.99.52l-3.05,12.72-2.02,9.97c-1.03,5.24-1.73,9.11-2.11,11.6-1.58,10.17-3.16,17.22-4.75,21.16-1.59,3.94-4.4,7.8-8.44,11.58-5.93,5.5-12.76,8.25-20.5,8.25-5.04,0-9.14-.98-12.29-2.94-3.15-1.96-4.73-4.52-4.73-7.67,0-6.3,5.29-12.53,15.86-18.69Zm28.36-22.64h-.69c-3.04,6.73-6.67,12.15-10.91,16.24-4.24,4.1-8.69,6.5-13.36,7.22-7.51,5.18-11.26,10-11.26,14.44,0,2.86,1.4,5.31,4.19,7.33s6.18,3.03,10.16,3.03c5.13,0,9.17-2,12.14-5.99s5.08-10.31,6.34-18.93l3.39-23.33Zm3.39-17.06c-3.44-1.69-6.86-2.54-10.27-2.54-3.81,0-7.03,1.7-9.67,5.11-2.09,2.69-3.99,6.67-5.69,11.92-1.71,5.26-2.56,9.75-2.56,13.47,0,4.04,1.27,6.06,3.82,6.06,5.64,0,13.13-8.15,22.47-24.45l1.89-9.58Z"></path>
  </g>
<style data-made-with="vivus-instant">.iXLZLJba_0{stroke-dasharray:498 500;stroke-dashoffset:499;animation:iXLZLJba_draw 3000ms linear 0ms forwards;}.iXLZLJba_1{stroke-dasharray:341 343;stroke-dashoffset:342;animation:iXLZLJba_draw 3000ms linear 0ms forwards;}.iXLZLJba_2{stroke-dasharray:401 403;stroke-dashoffset:402;animation:iXLZLJba_draw 3000ms linear 0ms forwards;}.iXLZLJba_3{stroke-dasharray:350 352;stroke-dashoffset:351;animation:iXLZLJba_draw 3000ms linear 0ms forwards;}.iXLZLJba_4{stroke-dasharray:222 224;stroke-dashoffset:223;animation:iXLZLJba_draw 3000ms linear 0ms forwards;}.iXLZLJba_5{stroke-dasharray:251 253;stroke-dashoffset:252;animation:iXLZLJba_draw 3000ms linear 0ms forwards;}.iXLZLJba_6{stroke-dasharray:67 69;stroke-dashoffset:68;animation:iXLZLJba_draw 3000ms linear 0ms forwards;}.iXLZLJba_7{stroke-dasharray:200 202;stroke-dashoffset:201;animation:iXLZLJba_draw 3000ms linear 0ms forwards;}.iXLZLJba_8{stroke-dasharray:492 494;stroke-dashoffset:493;animation:iXLZLJba_draw 3000ms linear 0ms forwards;}.iXLZLJba_9{stroke-dasharray:243 245;stroke-dashoffset:244;animation:iXLZLJba_draw 3000ms linear 0ms forwards;}.iXLZLJba_10{stroke-dasharray:251 253;stroke-dashoffset:252;animation:iXLZLJba_draw 3000ms linear 0ms forwards;}.iXLZLJba_11{stroke-dasharray:455 457;stroke-dashoffset:456;animation:iXLZLJba_draw 3000ms linear 0ms forwards;}@keyframes iXLZLJba_draw{100%{stroke-dashoffset:0;}}@keyframes iXLZLJba_fade{0%{stroke-opacity:1;}94.44444444444444%{stroke-opacity:1;}100%{stroke-opacity:0;}}</style></svg>